
<svg xmlns="http://www.w3.org/2000/svg" fill="none" viewBox="0 0 32 32">
  <path fill="currenColor" d="M25.7 17.2h-.2l-.4.1-1.1 1-.2.5V23c0 .7-.2 1.4-.8 2-.5.5-1.2.7-2 .7H7c-.8 0-1.5-.2-2-.8-.6-.5-.8-1.2-.8-2V9c0-.8.2-1.5.8-2 .5-.6 1.2-.8 2-.8h14a3 3 0 0 1 1 .1c.2 0 .3 0 .4-.2l.8-.8c.2-.1.2-.3.2-.5s-.1-.3-.3-.4c-.6-.3-1.3-.4-2-.4H6.9c-1.3 0-2.5.5-3.5 1.4C2.4 6.4 2 7.6 2 9v14.2c0 1.3.5 2.5 1.4 3.5 1 1 2.2 1.4 3.5 1.4h14.2c1.3 0 2.5-.5 3.5-1.4 1-1 1.4-2.2 1.4-3.5v-5.4c0-.3-.1-.4-.3-.5Z"/>
  <path fill="currenColor" d="m30 7.4-2-1.9c-.2-.3-.5-.4-1-.4-.3 0-.6.1-.9.4l-11 11-4.5-4.4c-.3-.3-.6-.4-1-.4-.3 0-.7 0-1 .4l-1.8 1.8c-.3.3-.4.6-.4 1s.1.7.4 1l7.3 7.3c.3.3.6.4 1 .4s.7-.1 1-.4L29.9 9.3c.3-.2.4-.6.4-1 0-.3 0-.6-.4-1Z"/>
</svg>