<svg xmlns="http://www.w3.org/2000/svg" fill="none" viewBox="0 0 32 32">
  <path fill="#000" d="M26.7 10.7 20 4.3a1 1 0 0 0-.6-.3H7.9a2 2 0 0 0-1.3.5A2 2 0 0 0 6 5.8v20.4c0 .4.2 1 .6 1.3.3.3.8.5 1.3.5h17.2c.5 0 1-.2 1.3-.5.4-.4.6-.9.6-1.3V11.4a.9.9 0 0 0-.3-.7Zm-6.4-3.5 3.4 3.3h-3.4V7.2Zm4.8 19H7.9V5.8h10.5v5.6c0 .2.1.5.3.6.2.2.4.3.7.3H25v13.9Zm-3.8-9.3c0 .3-.1.5-.3.7a1 1 0 0 1-.7.2h-7.6a1 1 0 0 1-.7-.2 1 1 0 0 1 0-1.3c.2-.2.4-.3.7-.3h7.6c.3 0 .5.1.7.3.2.1.3.4.3.6Zm0 3.7c0 .3-.1.5-.3.7a1 1 0 0 1-.7.2h-7.6a1 1 0 0 1-.7-.2 1 1 0 0 1 0-1.3c.2-.2.4-.3.7-.3h7.6c.3 0 .5 0 .7.3.2.1.3.4.3.6Z"/>
</svg>
