<svg xmlns="http://www.w3.org/2000/svg" fill="none" viewBox="0 0 32 32">
  <path fill="#fff" d="M16 3a13 13 0 1 0 0 26 13 13 0 0 0 0-26Zm11 13c0 1-.1 2-.4 3h-4.8c.3-2 .3-4 0-6h4.8c.3 1 .4 2 .4 3Zm-14.3 5h6.6c-.7 2.1-1.8 4-3.3 5.6a14.4 14.4 0 0 1-3.3-5.6Zm-.4-2c-.4-2-.4-4 0-6h7.4c.4 2 .4 4 0 6h-7.4ZM5 16c0-1 .1-2 .4-3h4.8c-.3 2-.3 4 0 6H5.4c-.3-1-.4-2-.4-3Zm14.3-5h-6.6c.7-2.1 1.8-4 3.3-5.6 1.5 1.6 2.6 3.5 3.3 5.6Zm6.5 0h-4.5c-.5-2-1.5-4-2.7-5.7a11 11 0 0 1 7.2 5.7ZM13.4 5.3a17 17 0 0 0-2.7 5.7H6.2a11 11 0 0 1 7.2-5.7ZM6.2 21h4.5c.5 2 1.5 4 2.7 5.7A11 11 0 0 1 6.2 21Zm12.4 5.7a17 17 0 0 0 2.7-5.7h4.5a11 11 0 0 1-7.2 5.7Z"/>
</svg>