<svg width="36" height="36" viewBox="0 0 36 36" fill="none" xmlns="http://www.w3.org/2000/svg">
<rect width="36" height="36" rx="18" fill="url(#paint0_radial_43_5019)"/>
<rect width="36" height="36" rx="18" fill="url(#paint1_radial_43_5019)"/>
<path d="M14.4645 18C14.4645 16.0439 16.0508 14.4578 18.008 14.4578C19.9653 14.4578 21.5524 16.0439 21.5524 18C21.5524 19.9561 19.9653 21.5423 18.008 21.5423C16.0508 21.5423 14.4645 19.9561 14.4645 18ZM12.5485 18C12.5485 21.0135 14.9927 23.4563 18.008 23.4563C21.0234 23.4563 23.4676 21.0135 23.4676 18C23.4676 14.9865 21.0234 12.5437 18.008 12.5437C14.9927 12.5437 12.5485 14.9865 12.5485 18ZM22.4078 12.3274C22.4077 12.5796 22.4825 12.8261 22.6226 13.0359C22.7627 13.2456 22.9619 13.4091 23.195 13.5057C23.4281 13.6023 23.6846 13.6277 23.9321 13.5786C24.1797 13.5295 24.407 13.4081 24.5855 13.2299C24.7641 13.0516 24.8857 12.8245 24.935 12.5772C24.9843 12.3298 24.9592 12.0734 24.8627 11.8404C24.7662 11.6074 24.6027 11.4082 24.393 11.268C24.1832 11.1278 23.9366 11.0529 23.6842 11.0528H23.6837C23.3455 11.0529 23.0211 11.1873 22.7819 11.4262C22.5427 11.6652 22.4081 11.9893 22.4078 12.3274V12.3274ZM13.7126 26.6493C12.676 26.6021 12.1126 26.4295 11.7381 26.2837C11.2417 26.0906 10.8875 25.8606 10.5152 25.4889C10.1428 25.1173 9.91226 24.7636 9.71986 24.2675C9.5739 23.8935 9.40123 23.3302 9.35411 22.2942C9.30256 21.1742 9.29227 20.8377 9.29227 18.0001C9.29227 15.1625 9.30341 14.8269 9.35411 13.7059C9.40131 12.67 9.57526 12.1078 9.71986 11.7327C9.91311 11.2366 10.1433 10.8826 10.5152 10.5104C10.887 10.1383 11.2409 9.9079 11.7381 9.71561C12.1124 9.56974 12.676 9.39718 13.7126 9.35008C14.8333 9.29857 15.17 9.28828 18.008 9.28828C20.8461 9.28828 21.1831 9.29942 22.3048 9.35008C23.3414 9.39726 23.9039 9.5711 24.2792 9.71561C24.7756 9.9079 25.1298 10.1388 25.5022 10.5104C25.8746 10.8821 26.1042 11.2366 26.2975 11.7327C26.4434 12.1067 26.6161 12.67 26.6632 13.7059C26.7148 14.8269 26.7251 15.1625 26.7251 18.0001C26.7251 20.8377 26.7148 21.1733 26.6632 22.2942C26.616 23.3302 26.4425 23.8933 26.2975 24.2675C26.1042 24.7636 25.8741 25.1176 25.5022 25.4889C25.1303 25.8602 24.7756 26.0906 24.2792 26.2837C23.905 26.4296 23.3414 26.6022 22.3048 26.6493C21.184 26.7008 20.8474 26.7111 18.008 26.7111C15.1687 26.7111 14.833 26.7008 13.7126 26.6493V26.6493ZM13.6245 7.43844C12.4927 7.48995 11.7192 7.66932 11.0438 7.93199C10.3443 8.20325 9.75209 8.56716 9.16034 9.15762C8.56859 9.74809 8.20539 10.3408 7.93397 11.0399C7.67114 11.7154 7.49167 12.488 7.44012 13.6192C7.38773 14.7521 7.37573 15.1143 7.37573 18C7.37573 20.8857 7.38773 21.2479 7.44012 22.3809C7.49167 23.5121 7.67114 24.2846 7.93397 24.9601C8.20539 25.6588 8.56868 26.2522 9.16034 26.8424C9.75201 27.4326 10.3443 27.796 11.0438 28.068C11.7205 28.3307 12.4927 28.5101 13.6245 28.5616C14.7588 28.6131 15.1206 28.6259 18.008 28.6259C20.8954 28.6259 21.2579 28.6139 22.3915 28.5616C23.5235 28.5101 24.2964 28.3307 24.9723 28.068C25.6714 27.796 26.264 27.4329 26.8557 26.8424C27.4475 26.2519 27.8099 25.6588 28.0821 24.9601C28.3449 24.2846 28.5252 23.5121 28.5759 22.3809C28.6275 21.247 28.6395 20.8857 28.6395 18C28.6395 15.1143 28.6275 14.7521 28.5759 13.6192C28.5244 12.4879 28.3449 11.715 28.0821 11.0399C27.8099 10.3413 27.4465 9.74902 26.8557 9.15762C26.2649 8.56623 25.6714 8.20325 24.9731 7.93199C24.2964 7.66932 23.5234 7.4891 22.3924 7.43844C21.2587 7.38692 20.8963 7.37408 18.0089 7.37408C15.1215 7.37408 14.7588 7.38607 13.6245 7.43844Z" fill="white"/>
<path d="M14.4645 18C14.4645 16.0439 16.0508 14.4578 18.008 14.4578C19.9653 14.4578 21.5524 16.0439 21.5524 18C21.5524 19.9561 19.9653 21.5423 18.008 21.5423C16.0508 21.5423 14.4645 19.9561 14.4645 18ZM12.5485 18C12.5485 21.0135 14.9927 23.4563 18.008 23.4563C21.0234 23.4563 23.4676 21.0135 23.4676 18C23.4676 14.9865 21.0234 12.5437 18.008 12.5437C14.9927 12.5437 12.5485 14.9865 12.5485 18ZM22.4078 12.3274C22.4077 12.5796 22.4825 12.8261 22.6226 13.0359C22.7627 13.2456 22.9619 13.4091 23.195 13.5057C23.4281 13.6023 23.6846 13.6277 23.9321 13.5786C24.1797 13.5295 24.407 13.4081 24.5855 13.2299C24.7641 13.0516 24.8857 12.8245 24.935 12.5772C24.9843 12.3298 24.9591 12.0734 24.8627 11.8404C24.7662 11.6074 24.6027 11.4082 24.393 11.268C24.1832 11.1278 23.9366 11.0529 23.6842 11.0528C23.346 11.0529 23.0211 11.1873 22.7819 11.4262C22.5427 11.6652 22.4081 11.9893 22.4078 12.3274ZM13.7126 26.6493C12.676 26.6021 12.1125 26.4295 11.7381 26.2837C11.2417 26.0906 10.8875 25.8606 10.5152 25.4889C10.1428 25.1173 9.91226 24.7636 9.71986 24.2675C9.5739 23.8935 9.40123 23.3302 9.35411 22.2942C9.30256 21.1742 9.29227 20.8377 9.29227 18.0001C9.29227 15.1625 9.30341 14.8269 9.35411 13.7059C9.40131 12.67 9.57526 12.1078 9.71986 11.7327C9.91311 11.2366 10.1433 10.8826 10.5152 10.5104C10.887 10.1383 11.2409 9.9079 11.7381 9.71561C12.1124 9.56974 12.676 9.39718 13.7126 9.35008C14.8333 9.29857 15.17 9.28828 18.008 9.28828C20.8461 9.28828 21.1831 9.29942 22.3048 9.35008C23.3414 9.39726 23.9039 9.5711 24.2792 9.71561C24.7756 9.9079 25.1298 10.1388 25.5022 10.5104C25.8746 10.8821 26.1042 11.2366 26.2975 11.7327C26.4434 12.1067 26.6161 12.67 26.6632 13.7059C26.7148 14.8269 26.7251 15.1625 26.7251 18.0001C26.7251 20.8377 26.7148 21.1733 26.6632 22.2942C26.616 23.3302 26.4425 23.8933 26.2975 24.2675C26.1042 24.7636 25.8741 25.1176 25.5022 25.4889C25.1303 25.8602 24.7756 26.0906 24.2792 26.2837C23.905 26.4296 23.3414 26.6022 22.3048 26.6493C21.184 26.7008 20.8474 26.7111 18.008 26.7111C15.1687 26.7111 14.833 26.7008 13.7126 26.6493ZM13.6245 7.43844C12.4927 7.48995 11.7192 7.66932 11.0438 7.93199C10.3443 8.20325 9.75209 8.56716 9.16034 9.15762C8.56859 9.74809 8.20539 10.3408 7.93397 11.0399C7.67114 11.7154 7.49167 12.488 7.44012 13.6192C7.38773 14.7521 7.37573 15.1143 7.37573 18C7.37573 20.8857 7.38773 21.2479 7.44012 22.3809C7.49167 23.5121 7.67114 24.2846 7.93397 24.9601C8.20539 25.6588 8.56868 26.2522 9.16034 26.8424C9.75201 27.4326 10.3443 27.796 11.0438 28.068C11.7205 28.3307 12.4927 28.5101 13.6245 28.5616C14.7588 28.6131 15.1206 28.6259 18.008 28.6259C20.8954 28.6259 21.2579 28.6139 22.3915 28.5616C23.5235 28.5101 24.2964 28.3307 24.9723 28.068C25.6714 27.796 26.264 27.4329 26.8557 26.8424C27.4475 26.2519 27.8099 25.6588 28.0821 24.9601C28.3449 24.2846 28.5252 23.5121 28.5759 22.3809C28.6275 21.247 28.6395 20.8857 28.6395 18C28.6395 15.1143 28.6275 14.7521 28.5759 13.6192C28.5244 12.4879 28.3449 11.715 28.0821 11.0399C27.8099 10.3413 27.4465 9.74902 26.8557 9.15762C26.2649 8.56623 25.6714 8.20325 24.9731 7.93199C24.2964 7.66932 23.5234 7.4891 22.3924 7.43844C21.2587 7.38692 20.8963 7.37408 18.0089 7.37408C15.1215 7.37408 14.7588 7.38607 13.6245 7.43844Z" fill="white"/>
<defs>
<radialGradient id="paint0_radial_43_5019" cx="0" cy="0" r="1" gradientUnits="userSpaceOnUse" gradientTransform="translate(21.8333 37.7829) scale(37.04 37.0385)">
<stop offset="0.64" stop-color="#8C3AAA" stop-opacity="0"/>
<stop offset="1" stop-color="#8C3AAA"/>
</radialGradient>
<radialGradient id="paint1_radial_43_5019" cx="0" cy="0" r="1" gradientUnits="userSpaceOnUse" gradientTransform="translate(4.78301 36.1701) scale(46.9969 46.995)">
<stop offset="0.09" stop-color="#FA8F21"/>
<stop offset="0.78" stop-color="#D82D7E"/>
</radialGradient>
</defs>
</svg>
