<svg xmlns="http://www.w3.org/2000/svg" fill="none" viewBox="0 0 32 32">
  <path fill="#000" d="M6 28a2 2 0 0 1-1.4-.6A2 2 0 0 1 4 26V6c0-.5.2-1 .6-1.4A2 2 0 0 1 6 4h8.3c.3 0 .5.1.7.3.2.2.3.4.3.7 0 .3-.1.5-.3.7a1 1 0 0 1-.7.3H6v20h20v-8.3c0-.3.1-.5.3-.7.2-.2.4-.3.7-.3.3 0 .5.1.7.3.2.2.3.4.3.7V26c0 .5-.2 1-.6 1.4a2 2 0 0 1-1.4.6H6Zm6-8a1 1 0 0 1-.3-.7c0-.3.1-.5.3-.7L24.6 6h-6.3a1 1 0 0 1-.7-.3 1 1 0 0 1-.3-.7c0-.3.1-.5.3-.7.2-.2.4-.3.7-.3H27c.3 0 .5.1.7.3.2.2.3.4.3.7v8.7c0 .3-.1.5-.3.7a1 1 0 0 1-.7.3 1 1 0 0 1-1-1V7.4L13.4 20a1 1 0 0 1-.7.3 1 1 0 0 1-.7-.3Z"/>
</svg>
