<svg xmlns="http://www.w3.org/2000/svg" fill="none" viewBox="0 0 32 32">
  <path fill="currentColor" d="M20.7 22a1.3 1.3 0 0 1-1-2.2 5.4 5.4 0 0 0 0-7.6 1.3 1.3 0 0 1 2-1.9 8 8 0 0 1 0 11.4 1.3 1.3 0 0 1-1 .4Zm-8.5-.3a1.3 1.3 0 0 0 0-2 5.4 5.4 0 0 1 0-7.5 1.3 1.3 0 1 0-1.9-1.9 8 8 0 0 0 0 11.4 1.3 1.3 0 0 0 2 0ZM26 24.9A13.3 13.3 0 0 0 26 7a1.3 1.3 0 1 0-2 2 10.6 10.6 0 0 1 0 14 1.3 1.3 0 1 0 2 1.8Zm-18 0a1.3 1.3 0 0 0 .2-1.8A10.6 10.6 0 0 1 8 9a1.3 1.3 0 0 0-2-2 13.3 13.3 0 0 0 0 18 1.3 1.3 0 0 0 1.9 0ZM16 14a2 2 0 1 0 0 4 2 2 0 0 0 0-4Z"/>
</svg>