<svg xmlns="http://www.w3.org/2000/svg" fill="none" viewBox="0 0 32 32">
  <path fill="#000" fill-rule="evenodd" d="M20.6 4.5V7h-3.2c-.7 0-1.3.6-1.3 1.4v7.2h-4.7v-2.5c0-.3-.2-.5-.5-.5H5.5c-.3 0-.5.2-.5.5V19c0 .3.2.5.5.5H11c.3 0 .5-.2.5-.5v-2.5h4.7v7.2c0 .8.6 1.4 1.3 1.4h3.2v2.5c0 .3.2.5.5.5h5.4c.3 0 .5-.2.5-.5v-5.8c0-.3-.2-.5-.5-.5H21c-.3 0-.5.2-.5.5v2.5h-3.2a.6.6 0 0 1-.6-.6v-7.2h3.8V19c0 .3.2.5.5.5h5.4c.3 0 .5-.2.5-.5v-6c0-.3-.2-.5-.5-.5H21c-.3 0-.5.2-.5.5v2.5h-3.8V8.4c0-.4.3-.6.6-.6h3.2v2.5c0 .3.2.5.5.5h5.4c.3 0 .5-.2.5-.5V4.5c0-.3-.2-.5-.5-.5H21c-.3 0-.5.2-.5.5Z" clip-rule="evenodd"/>
</svg>
