<svg xmlns="http://www.w3.org/2000/svg" fill="none" viewBox="0 0 36 36">
  <path fill="#00E676" d="m10 30.1.5.3a14.8 14.8 0 0 0 22.3-12.6 14.8 14.8 0 0 0-29.6 0c.1 2.8 1 5.4 2.3 7.7l.4.6-1.5 5.4L10 30Z"/>
  <path fill="#fff" d="M30 6a16 16 0 0 0-11.9-5A16.8 16.8 0 0 0 3.4 26.2L1 34.9l9-2.3a17 17 0 0 0 25-14.8c0-4.5-1.8-8.7-5-11.9ZM18.2 31.7c-2.5 0-5-.7-7-2l-.7-.2-5.3 1.3 1.4-5.2-.4-.5A13.7 13.7 0 0 1 10.6 6 14 14 0 0 1 30 10.5a14 14 0 0 1-4.5 19.2 13.6 13.6 0 0 1-7.4 2Zm8.2-10.2-1-.5-2.4-1-.3-.1-.7.1-1.4 1.6c0 .2-.2.3-.4.3H20l-.4-.2-.4-.2c-1-.5-2-1-2.7-1.7l-.7-.6a9.2 9.2 0 0 1-1.7-2.2H14l-.2-.3V16l.7-.7.5-.7c.2-.2.3-.6.2-.9l-1.5-3.5a1 1 0 0 0-.7-.4h-1.5l-.1.2-.6.3-.4.6a4.6 4.6 0 0 0-.6 5v.2c1 1.7 2 3.3 3.5 4.7l.4.3.7.8a17 17 0 0 0 6.7 3.4l1 .2h.9l1.3-.3.7-.4.2-.2.5-.4.5-.6.4-1.3v-.6l-.3-.2Z"/>
</svg>
