<svg xmlns="http://www.w3.org/2000/svg" fill="none" viewBox="0 0 32 32">
  <path fill="#000" d="m10.4 20 .3.1.9.9 4-5.2a.4.4 0 0 1 .8.2v.2l-4.5 5.6a.4.4 0 0 1-.3.2l-.3-.1-1.2-1.2V20l.3-.1Z"/>
  <path fill="#000" fill-rule="evenodd" d="M24.8 4.8h2.4a.8.8 0 0 1 .8.8v6a.8.8 0 0 1-.8.8h-2.4a.8.8 0 0 1-.7-.4H22a1 1 0 0 0-.4 0l-1.1.6V24h1.2a.8.8 0 0 1 .8.8v2.4a.8.8 0 0 1-.8.8H4.8a.8.8 0 0 1-.8-.8v-2.4a.8.8 0 0 1 .2-.6l.6-.2H6V10.8a1.2 1.2 0 0 1 1.2-1.2h1L9 7.4A2.2 2.2 0 0 1 10.2 6L15 4h1.1l8 1a.8.8 0 0 1 .7-.3Zm-3.2 22.4v-2.4h-1.2v.8a.8.8 0 0 1-.8.8H6.8a.8.8 0 0 1-.8-.8v-.8H4.8v2.4h16.8ZM6.8 25.6h12.8V12.9l-5 2.2a1.8 1.8 0 0 1-2.2-2.7l.2-.1.5-.4 3.4-1.5H7.2l-.3.1v.2l-.1.1v14.8Zm5-16h6a.8.8 0 0 0-.3-1 .8.8 0 0 0-.5-.1l-4 .3a1 1 0 0 0-.7.2l-.5.6Zm2.4 4.8 7-3 .7-.2H24V5.9l-8-1h-.7l-4.8 2c-.2 0-.4.1-.5.3l-.3.4-.7 2h1.6l1.2-1.1c.3-.3.7-.5 1-.5l4.1-.3a1.6 1.6 0 0 1 1.7 1.2 1.6 1.6 0 0 1-1 1.9l-4.1 1.8a1 1 0 0 0-.6.8v.1a1 1 0 0 0 1.3.9Zm10.6-8.8v6h2.4v-6h-2.4Z" clip-rule="evenodd"/>
</svg>
