<svg xmlns="http://www.w3.org/2000/svg" fill="none" viewBox="0 0 32 32">
  <path fill="currentColor" d="M17.5 4v4a1.5 1.5 0 1 1-3 0V4a1.5 1.5 0 1 1 3 0ZM28 14.5h-4a1.5 1.5 0 1 0 0 3h4a1.5 1.5 0 1 0 0-3Zm-5.3 6.1a1.5 1.5 0 1 0-2.1 2.1l2.8 2.9a1.5 1.5 0 0 0 2.1-2.2l-2.8-2.8ZM16 22.5a1.5 1.5 0 0 0-1.5 1.5v4a1.5 1.5 0 1 0 3 0v-4a1.5 1.5 0 0 0-1.5-1.5Zm-6.7-1.9-2.8 2.8a1.5 1.5 0 0 0 2 2.2l3-2.9a1.5 1.5 0 0 0-2.2-2.1Zm.2-4.6A1.5 1.5 0 0 0 8 14.5H4a1.5 1.5 0 1 0 0 3h4A1.5 1.5 0 0 0 9.5 16Zm-1-9.5a1.5 1.5 0 0 0-2 2l2.8 2.9a1.5 1.5 0 0 0 2.1-2.1L8.6 6.5Z"/>
</svg>