<svg width="31" height="20" viewBox="0 0 31 20" fill="none" xmlns="http://www.w3.org/2000/svg">
<path d="M8.94801 9.01199C10.4326 9.01199 11.636 7.80853 11.636 6.32399C11.636 4.83944 10.4326 3.63599 8.94801 3.63599C7.46347 3.63599 6.26001 4.83944 6.26001 6.32399C6.26001 7.80853 7.46347 9.01199 8.94801 9.01199Z" stroke="white" stroke-miterlimit="10" stroke-linecap="round" stroke-linejoin="round"/>
<path d="M14.7079 16.308C14.8999 15.732 15.0279 15.028 15.0279 14.388C15.0279 11.06 12.3399 10.356 8.94792 10.356C5.61992 10.356 2.86792 11.06 2.86792 14.388C2.86792 15.028 2.99592 15.732 3.18792 16.308H14.7079Z" stroke="white" stroke-miterlimit="10" stroke-linecap="round" stroke-linejoin="round"/>
<path d="M28.34 19.444H2.42C1.332 19.444 0.5 18.612 0.5 17.524V2.42C0.5 1.332 1.332 0.5 2.42 0.5H28.34C29.428 0.5 30.26 1.332 30.26 2.42V17.524C30.26 18.612 29.364 19.444 28.34 19.444Z" stroke="white" stroke-miterlimit="10" stroke-linecap="round" stroke-linejoin="round"/>
<path d="M18.1001 3.95599H27.1881" stroke="white" stroke-miterlimit="10" stroke-linecap="round" stroke-linejoin="round"/>
<path d="M18.1001 6.96399H24.8201" stroke="white" stroke-miterlimit="10" stroke-linecap="round" stroke-linejoin="round"/>
<path d="M25.2041 9.97198H27.1881" stroke="white" stroke-miterlimit="10" stroke-linecap="round" stroke-linejoin="round"/>
<path d="M18.1001 9.97198H23.1561" stroke="white" stroke-miterlimit="10" stroke-linecap="round" stroke-linejoin="round"/>
<path d="M21.1721 12.98H27.1881" stroke="white" stroke-miterlimit="10" stroke-linecap="round" stroke-linejoin="round"/>
<path d="M18.1001 12.98H19.0601" stroke="white" stroke-miterlimit="10" stroke-linecap="round" stroke-linejoin="round"/>
<path d="M18.1001 15.988H24.1801" stroke="white" stroke-miterlimit="10" stroke-linecap="round" stroke-linejoin="round"/>
</svg>
