<svg xmlns="http://www.w3.org/2000/svg" fill="none" viewBox="0 0 32 32">
  <path fill="#000" d="M18.8 23h-5.6v.4c0 .7.3 1.4.8 2a2.9 2.9 0 0 0 4 0c.5-.6.8-1.3.8-2V23ZM16 5.9c-.9 0-1.6.7-1.6 1.6a1 1 0 0 1-.5.8 7.8 7.8 0 0 0-4.5 6.6v3.7c-.1 1-.5 2-1 2.7h15.3c-.5-.7-.9-1.5-1-2.3v-.3l-.1-.1v-3.7a7.6 7.6 0 0 0-4-6.3l-.5-.3a1 1 0 0 1-.5-.8c0-.9-.7-1.6-1.6-1.6Zm4.7 17.6a4.5 4.5 0 0 1-1.4 3.2A4.7 4.7 0 0 1 16 28a4.8 4.8 0 0 1-3.3-1.4 4.6 4.6 0 0 1-1.4-3.2V23H5.9a1 1 0 0 1-.5-.2 1 1 0 0 1-.3-1.1c0-.2.2-.4.4-.5h.2a4 4 0 0 0 1.8-3v-3.5a9.4 9.4 0 0 1 5.1-8 3.5 3.5 0 0 1 5.6-2c.6.5 1 1.2 1.2 2a9.7 9.7 0 0 1 5 8v3.6a4 4 0 0 0 2.1 3h.2a1 1 0 0 1 .2 1c0 .2-.1.4-.3.5a1 1 0 0 1-.5.2h-5.4v.3Z"/>
</svg>
