<svg xmlns="http://www.w3.org/2000/svg" fill="none" viewBox="0 0 32 32">
  <path fill="#000" fill-rule="evenodd" d="M16.7 4a10.3 10.3 0 0 1 6.7 3.2 11.7 11.7 0 0 1 2.8 4.7l.5-.1h1.2a3 3 0 0 1 1.8 2c.2.5.3 1.2.3 1.9l-.3 2c-.4 1-1 1.7-1.7 2.2a3 3 0 0 1-1.9.5l-.5-.1a.7.7 0 0 1-.3-.5v-5.4c-.4-2.9-1.7-5.4-3.8-7A8.8 8.8 0 0 0 11 7a9.7 9.7 0 0 0-3.1 3.6 11 11 0 0 0-1.1 3.9l-.1 3V20A11.4 11.4 0 0 0 9 23.7a9.2 9.2 0 0 0 4.4 2.5h.3l.7-.3h3.3a1.1 1.1 0 0 1 .8.6v.5a1 1 0 0 1-.8 1h-3.4a1.1 1.1 0 0 1-.8-.8L13 27a10.8 10.8 0 0 1-7-6.3l-.1-.2h-.2a3 3 0 0 1-1.6-.6 4.5 4.5 0 0 1-1.8-2.7L2 15.5c0-.9.2-1.6.5-2.2.4-.9 1-1.4 1.9-1.5h1.4l.1-.2c.5-1.5 1.3-2.9 2.3-4A10.6 10.6 0 0 1 16.7 4Zm-.3 2.4A8.4 8.4 0 0 1 22 9a9.4 9.4 0 0 1 2.7 7.8 9.4 9.4 0 0 1-3.6 6.4 8.4 8.4 0 0 1-5.7 1.7 8.4 8.4 0 0 1-6.3-3.5 9.5 9.5 0 0 1-1.6-7.7 9.5 9.5 0 0 1 2.2-4.4c.8-1 1.8-1.7 3-2.2a8.1 8.1 0 0 1 3.7-.7m4 6a13.2 13.2 0 0 1-8.9 0h-.1l-.2.2a39.5 39.5 0 0 1-2.3 1.7v.4c-.1.3-.2.7-.1 1v1.1a8 8 0 0 0 3 5.3 6.8 6.8 0 0 0 7.1.7 7.6 7.6 0 0 0 3.7-3.8c.6-1.4.8-3 .5-4.7a43.7 43.7 0 0 1-2.5-2l-.2.1Z" clip-rule="evenodd"/>
</svg>
