<svg xmlns="http://www.w3.org/2000/svg" fill="none" viewBox="0 0 32 32">
  <path fill="#000" d="M25.4 18.2a8.5 8.5 0 0 0-6.2-2.8 6 6 0 0 0 3.2-5.3C22.4 6.8 19.5 4 16 4a6.3 6.3 0 0 0-6.4 6.1 6 6 0 0 0 3.3 5.3h-.1c-2.4 0-4.6 1-6.2 2.8A9.3 9.3 0 0 0 4 24.5v2c0 .9.7 1.5 1.5 1.5h21c.8 0 1.5-.6 1.5-1.4v-2.1c0-2.3-1-4.5-2.6-6.3Zm-15-8c0-3 2.6-5.4 5.6-5.4 3 0 5.5 2.4 5.5 5.3 0 3-2.5 5.3-5.5 5.3s-5.5-2.3-5.5-5.3Zm16.8 16.4c0 .3-.3.6-.7.6h-21a.6.6 0 0 1-.7-.6v-2.1c0-4.4 3.7-8.2 8-8.2h6.4c4.3 0 8 3.8 8 8.2v2Z"/>
</svg>
