<svg xmlns="http://www.w3.org/2000/svg" fill="none" viewBox="0 0 32 32">
  <path fill="#000" fill-rule="evenodd" d="M20.1 20v-1.9c0-.7-.6-1.2-1.3-1.2h-5.6c-.7 0-1.3.5-1.3 1.2v2l1.3.7v-1.6c0-.3.6-.3.6 0v2l2.2 1.1 2.2-1.2v-1.9c0-.3.6-.3.6 0v1.6l1.3-.7ZM6 11.5c-1.3 0-1.3-1.9 0-1.9.7 0 1 .6 1 1.2l1.4.8 7.3-4V5.7c-1-.2-.9-1.8.3-1.8s1.3 1.6.3 1.8v1.6l7.3 4 1.5-.7c-.1-.6.2-1.2 1-1.2 1.2 0 1.2 1.9 0 1.9a1 1 0 0 1-.7-.2l-1.5.8v8l1.5.8.6-.2c1.3 0 1.3 1.9 0 1.9-.7 0-1-.6-.9-1.2l-1.5-.8-7.3 4v1.7c1 .2.9 1.8-.3 1.8s-1.3-1.6-.3-1.8v-1.6l-7.3-4-1.5.7c.1.6-.2 1.2-1 1.2-1.2 0-1.2-1.9 0-1.9l.7.2 1.5-.7v-8l-1.5-.8a1 1 0 0 1-.6.2Zm0-1.3c-.4 0-.6.5-.2.7.5.3.8-.7.2-.7Zm0 11c-.3 0-.5.4-.4.6.3.4 1 0 .7-.3 0-.2-.2-.2-.3-.2Zm10 5.6c-.5 0-.5.7 0 .7s.5-.7 0-.7Zm10-5.5c-.4 0-.5.5-.2.7.6.3.9-.7.2-.7Zm0-11c-.3 0-.4.2-.3.5.3.4 1 0 .7-.4L26 10ZM16 4.5c-.5 0-.5.7 0 .7s.5-.7 0-.7ZM8.7 20l7.3 4 7.3-4v-8L16 8l-7.3 4v8Zm2.7.4-1.6-1-.1-.2v-6.6l.1-.3 6-3.3h.3l6 3.3c.2 0 .2.2.2.3v6.6l-.1.3-6 3.3h-.4l-4.4-2.4Zm-.1-.7V18c0-1 .9-1.8 2-1.8h5.5c1 0 2 .8 2 1.8v1.7l1-.6v-6.4l-5.8-3-5.7 3.1v6.4l1 .6Zm4.7-4c-1.2 0-2.2-1-2.2-2.1 0-1.2 1-2.2 2.2-2.2 1.2 0 2.2 1 2.2 2.2 0 1.1-1 2-2.2 2Zm0-3.7c-.9 0-1.6.7-1.6 1.6 0 .8.7 1.5 1.6 1.5 1 0 1.6-.7 1.6-1.5 0-1-.7-1.6-1.6-1.6Z" clip-rule="evenodd"/>
</svg>
