<svg width="36" height="36" viewBox="0 0 36 36" fill="none" xmlns="http://www.w3.org/2000/svg">
<rect width="36" height="36" rx="18" fill="#FF0302"/>
<path d="M28.8637 12.6393C28.7355 12.1685 28.4829 11.7389 28.1311 11.3934C27.7792 11.0479 27.3406 10.7986 26.859 10.6705C25.0862 10.2053 18.0001 10.2053 18.0001 10.2053C18.0001 10.2053 10.914 10.2053 9.1412 10.6705C8.65962 10.7986 8.22097 11.0479 7.86915 11.3934C7.51733 11.7389 7.26468 12.1685 7.13648 12.6393C6.66235 14.3767 6.66235 18 6.66235 18C6.66235 18 6.66235 21.6233 7.13648 23.3608C7.26468 23.8315 7.51733 24.2611 7.86915 24.6067C8.22097 24.9522 8.65962 25.2015 9.1412 25.3296C10.914 25.7947 18.0001 25.7947 18.0001 25.7947C18.0001 25.7947 25.0862 25.7947 26.859 25.3296C27.3406 25.2015 27.7792 24.9522 28.1311 24.6067C28.4829 24.2611 28.7355 23.8315 28.8637 23.3608C29.3379 21.6233 29.3379 18 29.3379 18C29.3379 18 29.3379 14.3767 28.8637 12.6393Z" fill="white"/>
<path d="M15.8743 21.543V14.4569L21.5431 18L15.8743 21.543Z" fill="#FF0302"/>
</svg>
